<svg xmlns="http://www.w3.org/2000/svg" xmlns:xlink="http://www.w3.org/1999/xlink" viewBox="0 0 150.44 201.65"><defs><style>.cls-1{isolation:isolate;}.cls-2{fill:url(#linear-gradient);}.cls-3{fill:url(#linear-gradient-2);}.cls-4{mix-blend-mode:lighten;}.cls-5{fill:url(#linear-gradient-3);}.cls-6{fill:url(#linear-gradient-4);}.cls-7{fill:url(#linear-gradient-5);}.cls-8{fill:url(#linear-gradient-6);}.cls-9{fill:url(#linear-gradient-7);}.cls-10{fill:url(#linear-gradient-8);}.cls-11{fill:#be1e2d;mix-blend-mode:multiply;}</style><linearGradient id="linear-gradient" x1="75.22" y1="3.38" x2="75.22" y2="112.1" gradientUnits="userSpaceOnUse"><stop offset="0" stop-color="#ec1c24"/><stop offset="1" stop-color="#9c1619"/></linearGradient><linearGradient id="linear-gradient-2" x1="42.82" y1="53.28" x2="128.41" y2="102.64" xlink:href="#linear-gradient"/><linearGradient id="linear-gradient-3" x1="72.23" y1="50.25" x2="99.09" y2="93.99" xlink:href="#linear-gradient"/><linearGradient id="linear-gradient-4" x1="96.19" y1="11.96" x2="71.2" y2="88.81" xlink:href="#linear-gradient"/><linearGradient id="linear-gradient-5" x1="103.49" y1="135.28" x2="13.52" y2="101.54" xlink:href="#linear-gradient"/><linearGradient id="linear-gradient-6" x1="73.9" y1="88.65" x2="75.77" y2="188" xlink:href="#linear-gradient"/><linearGradient id="linear-gradient-7" x1="89.33" y1="122.72" x2="42.47" y2="113.82" xlink:href="#linear-gradient"/><linearGradient id="linear-gradient-8" x1="19.64" y1="185.44" x2="62.13" y2="142.33" xlink:href="#linear-gradient"/></defs><title>logo2</title><g class="cls-1"><g id="Layer_5" data-name="Layer 5"><polygon class="cls-2" points="75.22 0 0 42.84 25.05 57.66 75.22 28.9 125.4 57.3 125.4 115.15 150.44 100.71 150.44 42.84 75.22 0"/><polygon class="cls-3" points="75.22 57.6 50.19 72.19 125.4 115.15 125.4 86.25 75.22 57.6"/><g class="cls-4"><polygon class="cls-5" points="75.24 61.93 57.69 72.16 124.76 110.47 124.76 90.2 75.24 61.93"/><polygon class="cls-6" points="75.22 4.32 7.47 42.91 25.08 53.32 75.21 24.59 129.15 55.12 129.15 92.71 124.76 90.2 124.76 110.47 125.39 110.83 146.69 98.54 146.69 45.02 75.22 4.32"/></g><polygon class="cls-7" points="75.22 144.05 100.26 129.47 25.05 86.5 25.05 115.4 75.22 144.05"/><polygon class="cls-8" points="75.22 201.65 150.44 158.81 125.4 143.99 75.22 172.75 25.05 144.35 25.05 86.5 0 100.94 0 158.81 75.22 201.65"/><g class="cls-4"><polygon class="cls-9" points="75.2 139.72 92.75 129.5 25.06 90.82 24.76 91 24.76 110.92 75.2 139.72"/><polygon class="cls-10" points="125.37 148.33 75.23 177.06 21.3 146.53 21.3 108.95 24.76 110.92 24.76 91 3.75 103.11 3.75 156.63 75.22 197.34 142.98 158.75 125.37 148.33"/></g><polygon class="cls-11" points="123.84 114.26 125.4 115.15 125.4 86.25 120.61 83.52 123.84 114.26"/><polygon class="cls-11" points="26.61 87.39 25.05 86.5 25.05 115.4 29.83 118.14 26.61 87.39"/></g></g></svg>