<svg xmlns="http://www.w3.org/2000/svg" xmlns:xlink="http://www.w3.org/1999/xlink" viewBox="0 0 435.45 290.65"><defs><style>.cls-1{isolation:isolate;}.cls-2{fill:url(#linear-gradient);}.cls-3{fill:url(#linear-gradient-2);}.cls-4{mix-blend-mode:lighten;}.cls-5{fill:url(#linear-gradient-3);}.cls-6{fill:url(#linear-gradient-4);}.cls-7{fill:url(#linear-gradient-5);}.cls-8{fill:url(#linear-gradient-6);}.cls-9{fill:url(#linear-gradient-7);}.cls-10{fill:url(#linear-gradient-8);}.cls-11{fill:#be1e2d;mix-blend-mode:multiply;}.cls-12{font-size:60px;font-family:Roboto-Regular, Roboto;}.cls-12,.cls-14{fill:#404041;}.cls-13{letter-spacing:0.01em;}.cls-14{font-size:24px;font-family:AdobeArabic-Regular, Adobe Arabic;}.cls-15{letter-spacing:-0.07em;}.cls-16{letter-spacing:0em;}.cls-17{letter-spacing:0em;}.cls-18{letter-spacing:0em;}.cls-19{letter-spacing:0em;}.cls-20{letter-spacing:-0.01em;}.cls-21{letter-spacing:-0.01em;}.cls-22{letter-spacing:0em;}.cls-23{letter-spacing:0em;}.cls-24{letter-spacing:-0.01em;}.cls-25{letter-spacing:-0.01em;}.cls-26{letter-spacing:0em;}.cls-27{letter-spacing:0em;}.cls-28{letter-spacing:-0.04em;}.cls-29{letter-spacing:0.01em;}.cls-30{letter-spacing:-0.01em;}</style><linearGradient id="linear-gradient" x1="213.5" y1="3.38" x2="213.5" y2="112.1" gradientUnits="userSpaceOnUse"><stop offset="0" stop-color="#ec1c24"/><stop offset="1" stop-color="#9c1619"/></linearGradient><linearGradient id="linear-gradient-2" x1="181.09" y1="53.28" x2="266.69" y2="102.64" xlink:href="#linear-gradient"/><linearGradient id="linear-gradient-3" x1="210.5" y1="50.25" x2="237.37" y2="93.99" xlink:href="#linear-gradient"/><linearGradient id="linear-gradient-4" x1="234.47" y1="11.96" x2="209.47" y2="88.81" xlink:href="#linear-gradient"/><linearGradient id="linear-gradient-5" x1="241.77" y1="135.28" x2="151.8" y2="101.54" xlink:href="#linear-gradient"/><linearGradient id="linear-gradient-6" x1="212.17" y1="88.65" x2="214.05" y2="188" xlink:href="#linear-gradient"/><linearGradient id="linear-gradient-7" x1="227.61" y1="122.72" x2="180.75" y2="113.82" xlink:href="#linear-gradient"/><linearGradient id="linear-gradient-8" x1="157.91" y1="185.44" x2="200.4" y2="142.33" xlink:href="#linear-gradient"/></defs><title>logo</title><g class="cls-1"><g id="Layer_5" data-name="Layer 5"><polygon class="cls-2" points="213.5 0 138.28 42.84 163.32 57.66 213.5 28.9 263.67 57.3 263.67 115.15 288.72 100.71 288.72 42.84 213.5 0"/><polygon class="cls-3" points="213.5 57.6 188.46 72.19 263.67 115.15 263.67 86.25 213.5 57.6"/><g class="cls-4"><polygon class="cls-5" points="213.52 61.93 195.96 72.16 263.04 110.47 263.04 90.2 213.52 61.93"/><polygon class="cls-6" points="213.5 4.32 145.74 42.91 163.35 53.32 213.49 24.59 267.42 55.12 267.42 92.71 263.04 90.2 263.04 110.47 263.66 110.83 284.97 98.54 284.97 45.02 213.5 4.32"/></g><polygon class="cls-7" points="213.5 144.05 238.53 129.47 163.32 86.5 163.32 115.4 213.5 144.05"/><polygon class="cls-8" points="213.5 201.65 288.72 158.81 263.67 143.99 213.5 172.75 163.32 144.35 163.32 86.5 138.28 100.94 138.28 158.81 213.5 201.65"/><g class="cls-4"><polygon class="cls-9" points="213.48 139.72 231.03 129.5 163.33 90.82 163.03 91 163.03 110.92 213.48 139.72"/><polygon class="cls-10" points="263.64 148.33 213.51 177.06 159.57 146.53 159.57 108.95 163.03 110.92 163.03 91 142.02 103.11 142.02 156.63 213.5 197.34 281.25 158.75 263.64 148.33"/></g><polygon class="cls-11" points="262.11 114.26 263.67 115.15 263.67 86.25 258.88 83.52 262.11 114.26"/><polygon class="cls-11" points="164.88 87.39 163.32 86.5 163.32 115.4 168.11 118.14 164.88 87.39"/><text class="cls-12" transform="translate(22.57 255.5)">S<tspan class="cls-13" x="36.68" y="0">M</tspan><tspan x="89.33" y="0">ARKETING</tspan></text><text class="cls-14" transform="translate(0 277.5)"><tspan class="cls-15">W</tspan><tspan class="cls-16" x="15.56" y="0">e</tspan><tspan x="22.97" y="0">b </tspan><tspan class="cls-17" x="36.66" y="0">D</tspan><tspan class="cls-18" x="50" y="0">e</tspan><tspan x="57.43" y="0">si</tspan><tspan class="cls-19" x="68.64" y="0">g</tspan><tspan x="77.03" y="0">n - E-</tspan><tspan class="cls-20" x="118.66" y="0">M</tspan><tspan class="cls-21" x="134.18" y="0">a</tspan><tspan class="cls-18" x="141.79" y="0">r</tspan><tspan class="cls-22" x="148.32" y="0">k</tspan><tspan x="156.96" y="0">e</tspan><tspan class="cls-23" x="164.44" y="0">t</tspan><tspan x="169.92" y="0">i</tspan><tspan class="cls-21" x="174.7" y="0">n</tspan><tspan x="184.22" y="0">g - </tspan><tspan class="cls-24" x="208.16" y="0">G</tspan><tspan class="cls-23" x="220.91" y="0">r</tspan><tspan class="cls-25" x="227.56" y="0">a</tspan><tspan class="cls-26" x="234.98" y="0">p</tspan><tspan class="cls-27" x="244.16" y="0">h</tspan><tspan x="253.55" y="0">ic </tspan><tspan class="cls-17" x="270.45" y="0">D</tspan><tspan class="cls-18" x="283.79" y="0">e</tspan><tspan x="291.22" y="0">si</tspan><tspan class="cls-19" x="302.43" y="0">g</tspan><tspan x="310.82" y="0">n - </tspan><tspan class="cls-28" x="336.12" y="0">V</tspan><tspan x="347.8" y="0">id</tspan><tspan class="cls-19" x="361.92" y="0">e</tspan><tspan x="369.49" y="0">o </tspan><tspan class="cls-29" x="383.23" y="0">E</tspan><tspan x="393.43" y="0">d</tspan><tspan class="cls-30" x="402.77" y="0">i</tspan><tspan class="cls-23" x="407.36" y="0">t</tspan><tspan x="412.84" y="0">i</tspan><tspan class="cls-21" x="417.62" y="0">n</tspan><tspan x="427.14" y="0">g</tspan></text></g></g></svg>