<svg xmlns="http://www.w3.org/2000/svg" xmlns:xlink="http://www.w3.org/1999/xlink" viewBox="0 0 372.42 276.76"><defs><style>.cls-1{isolation:isolate;}.cls-2{fill:url(#linear-gradient);}.cls-3{fill:url(#linear-gradient-2);}.cls-4{mix-blend-mode:lighten;}.cls-5{fill:url(#linear-gradient-3);}.cls-6{fill:url(#linear-gradient-4);}.cls-7{fill:url(#linear-gradient-5);}.cls-8{fill:url(#linear-gradient-6);}.cls-9{fill:url(#linear-gradient-7);}.cls-10{fill:url(#linear-gradient-8);}.cls-11{fill:#be1e2d;mix-blend-mode:multiply;}.cls-12{font-size:60px;fill:#404041;font-family:Roboto-Regular, Roboto;}.cls-13{letter-spacing:0.01em;}</style><linearGradient id="linear-gradient" x1="182.92" y1="3.38" x2="182.92" y2="112.1" gradientUnits="userSpaceOnUse"><stop offset="0" stop-color="#ec1c24"/><stop offset="1" stop-color="#9c1619"/></linearGradient><linearGradient id="linear-gradient-2" x1="150.52" y1="53.28" x2="236.12" y2="102.64" xlink:href="#linear-gradient"/><linearGradient id="linear-gradient-3" x1="179.93" y1="50.25" x2="206.8" y2="93.99" xlink:href="#linear-gradient"/><linearGradient id="linear-gradient-4" x1="203.89" y1="11.96" x2="178.9" y2="88.81" xlink:href="#linear-gradient"/><linearGradient id="linear-gradient-5" x1="211.2" y1="135.28" x2="121.22" y2="101.54" xlink:href="#linear-gradient"/><linearGradient id="linear-gradient-6" x1="181.6" y1="88.65" x2="183.47" y2="188" xlink:href="#linear-gradient"/><linearGradient id="linear-gradient-7" x1="197.03" y1="122.72" x2="150.17" y2="113.82" xlink:href="#linear-gradient"/><linearGradient id="linear-gradient-8" x1="127.34" y1="185.44" x2="169.83" y2="142.33" xlink:href="#linear-gradient"/></defs><title>logo3</title><g class="cls-1"><g id="Layer_5" data-name="Layer 5"><polygon class="cls-2" points="182.92 0 107.7 42.84 132.75 57.66 182.92 28.9 233.1 57.3 233.1 115.15 258.14 100.71 258.14 42.84 182.92 0"/><polygon class="cls-3" points="182.92 57.6 157.89 72.19 233.1 115.15 233.1 86.25 182.92 57.6"/><g class="cls-4"><polygon class="cls-5" points="182.94 61.93 165.39 72.16 232.46 110.47 232.46 90.2 182.94 61.93"/><polygon class="cls-6" points="182.92 4.32 115.17 42.91 132.78 53.32 182.91 24.59 236.85 55.12 236.85 92.71 232.46 90.2 232.46 110.47 233.09 110.83 254.4 98.54 254.4 45.02 182.92 4.32"/></g><polygon class="cls-7" points="182.92 144.05 207.96 129.47 132.75 86.5 132.75 115.4 182.92 144.05"/><polygon class="cls-8" points="182.92 201.65 258.14 158.81 233.1 143.99 182.92 172.75 132.75 144.35 132.75 86.5 107.7 100.94 107.7 158.81 182.92 201.65"/><g class="cls-4"><polygon class="cls-9" points="182.9 139.72 200.46 129.5 132.76 90.82 132.46 91 132.46 110.92 182.9 139.72"/><polygon class="cls-10" points="233.07 148.33 182.94 177.06 129 146.53 129 108.95 132.46 110.92 132.46 91 111.45 103.11 111.45 156.63 182.92 197.34 250.68 158.75 233.07 148.33"/></g><polygon class="cls-11" points="231.54 114.26 233.1 115.15 233.1 86.25 228.31 83.52 231.54 114.26"/><polygon class="cls-11" points="134.31 87.39 132.75 86.5 132.75 115.4 137.53 118.14 134.31 87.39"/><text class="cls-12" transform="translate(0 260.5)">S<tspan class="cls-13" x="36.68" y="0">M</tspan><tspan x="89.33" y="0">ARKETING</tspan></text></g></g></svg>